<svg width="128" height="128" viewBox="0 0 128 128" fill="none" xmlns="http://www.w3.org/2000/svg">
<rect width="128" height="128" rx="64" fill="#FFF7F7"/>
<path d="M82.5385 59.153C82.5385 65.5012 81.2054 71.7872 78.6153 77.6521C76.0253 83.5171 72.229 88.8461 67.4432 93.3349C62.6574 97.8238 56.9759 101.384 50.7229 103.814C44.47 106.243 37.7681 107.494 31 107.494L31 95.4084C36.0761 95.4084 41.1025 94.4706 45.7922 92.6486C50.4819 90.8266 54.7431 88.1561 58.3324 84.7894C61.9217 81.4228 64.769 77.426 66.7115 73.0273C68.654 68.6286 69.6539 63.9141 69.6539 59.153H82.5385Z" fill="#6D28D9"/>
<path d="M46.4615 68.8211C46.4615 62.4729 47.7946 56.1869 50.3846 50.322C52.9747 44.457 56.771 39.128 61.5568 34.6391C66.3425 30.1503 72.0241 26.5896 78.277 24.1602C84.53 21.7309 91.2318 20.4805 98 20.4805L97.9999 32.5657C92.9239 32.5657 87.8975 33.5034 83.2078 35.3254C78.5181 37.1475 74.2569 39.818 70.6676 43.1846C67.0782 46.5513 64.231 50.548 62.2885 54.9467C60.3459 59.3454 59.3461 64.06 59.3461 68.8211H46.4615Z" fill="#030712"/>
</svg>
